<mxfile host="app.diagrams.net" modified="2023-09-24T13:14:13.448Z" agent="Mozilla/5.0 (Windows NT 10.0; Win64; x64) AppleWebKit/537.36 (KHTML, like Gecko) Chrome/117.0.0.0 Safari/537.36 Edg/117.0.2045.36" version="21.7.2" etag="G9z80r4k5S3X9oJcnDHO" type="github">
  <diagram name="Page-1" id="iUysA7R9c6YAEst3F_gZ">
    <mxGraphModel>
      <root>
        <mxCell id="0" />
        <mxCell id="1" parent="0" />
      </root>
    </mxGraphModel>
  </diagram>
</mxfile>
